<svg width="137" height="48" viewBox="0 0 137 48" fill="none" xmlns="http://www.w3.org/2000/svg">
<path d="M41 29.25V30.75H23V29.25H41ZM41 23.25V24.75H23V23.25H41ZM41 17.25V18.75H23V17.25H41Z" fill="white"/>
<path d="M55.54 28.5C55.4373 28.5 55.358 28.472 55.302 28.416C55.246 28.3507 55.218 28.2713 55.218 28.178V19.036C55.218 18.9333 55.246 18.854 55.302 18.798C55.358 18.7327 55.4373 18.7 55.54 18.7H56.254C56.3567 18.7 56.436 18.7327 56.492 18.798C56.5573 18.854 56.59 18.9333 56.59 19.036V22.9H58.172L60.664 18.924C60.7107 18.8493 60.7713 18.7933 60.846 18.756C60.9207 18.7187 61.0187 18.7 61.14 18.7H61.896C61.9987 18.7 62.0733 18.728 62.12 18.784C62.1667 18.84 62.19 18.9053 62.19 18.98C62.19 19.036 62.1667 19.0967 62.12 19.162L59.432 23.446L62.386 28.01C62.414 28.0473 62.428 28.0987 62.428 28.164C62.428 28.2573 62.3953 28.3367 62.33 28.402C62.274 28.4673 62.1993 28.5 62.106 28.5H61.308C61.2053 28.5 61.126 28.4813 61.07 28.444C61.0233 28.3973 60.9813 28.346 60.944 28.29L58.228 24.16H56.59V28.178C56.59 28.2713 56.5573 28.3507 56.492 28.416C56.436 28.472 56.3567 28.5 56.254 28.5H55.54ZM63.5151 28.5C63.4404 28.5 63.3751 28.472 63.3191 28.416C63.2631 28.36 63.2351 28.2947 63.2351 28.22C63.2351 28.1733 63.2397 28.122 63.2491 28.066L66.7211 19.008C66.7584 18.9147 66.8097 18.84 66.8751 18.784C66.9404 18.728 67.0384 18.7 67.1691 18.7H68.1211C68.2424 18.7 68.3357 18.728 68.4011 18.784C68.4757 18.84 68.5317 18.9147 68.5691 19.008L72.0271 28.066C72.0457 28.122 72.0551 28.1733 72.0551 28.22C72.0551 28.2947 72.0271 28.36 71.9711 28.416C71.9151 28.472 71.8497 28.5 71.7751 28.5H71.0611C70.9491 28.5 70.8651 28.472 70.8091 28.416C70.7624 28.36 70.7297 28.3087 70.7111 28.262L69.9411 26.274H65.3491L64.5791 28.262C64.5697 28.3087 64.5371 28.36 64.4811 28.416C64.4251 28.472 64.3411 28.5 64.2291 28.5H63.5151ZM65.7551 25.07H69.5351L67.6451 20.1L65.7551 25.07ZM76.016 28.5C75.9227 28.5 75.8433 28.472 75.778 28.416C75.722 28.3507 75.694 28.2713 75.694 28.178V19.946H73.006C72.9127 19.946 72.8333 19.918 72.768 19.862C72.712 19.7967 72.684 19.7173 72.684 19.624V19.036C72.684 18.9333 72.712 18.854 72.768 18.798C72.8333 18.7327 72.9127 18.7 73.006 18.7H79.754C79.8567 18.7 79.936 18.7327 79.992 18.798C80.0573 18.854 80.09 18.9333 80.09 19.036V19.624C80.09 19.7173 80.0573 19.7967 79.992 19.862C79.936 19.918 79.8567 19.946 79.754 19.946H77.08V28.178C77.08 28.2713 77.0473 28.3507 76.982 28.416C76.926 28.472 76.8467 28.5 76.744 28.5H76.016ZM81.0014 28.5C80.9267 28.5 80.8614 28.472 80.8054 28.416C80.7494 28.36 80.7214 28.2947 80.7214 28.22C80.7214 28.1733 80.7261 28.122 80.7354 28.066L84.2074 19.008C84.2447 18.9147 84.2961 18.84 84.3614 18.784C84.4267 18.728 84.5247 18.7 84.6554 18.7H85.6074C85.7287 18.7 85.8221 18.728 85.8874 18.784C85.9621 18.84 86.0181 18.9147 86.0554 19.008L89.5134 28.066C89.5321 28.122 89.5414 28.1733 89.5414 28.22C89.5414 28.2947 89.5134 28.36 89.4574 28.416C89.4014 28.472 89.3361 28.5 89.2614 28.5H88.5474C88.4354 28.5 88.3514 28.472 88.2954 28.416C88.2487 28.36 88.2161 28.3087 88.1974 28.262L87.4274 26.274H82.8354L82.0654 28.262C82.0561 28.3087 82.0234 28.36 81.9674 28.416C81.9114 28.472 81.8274 28.5 81.7154 28.5H81.0014ZM83.2414 25.07H87.0214L85.1314 20.1L83.2414 25.07ZM97.4223 28.5C97.329 28.5 97.2496 28.472 97.1843 28.416C97.1283 28.3507 97.1003 28.2713 97.1003 28.178V19.96H93.6283V22.214C93.6283 23.334 93.5676 24.2907 93.4463 25.084C93.325 25.868 93.1383 26.5073 92.8863 27.002C92.6343 27.4873 92.3076 27.8513 91.9063 28.094C91.5143 28.3273 91.0383 28.458 90.4783 28.486C90.385 28.4953 90.3056 28.4673 90.2403 28.402C90.175 28.3367 90.1423 28.2527 90.1423 28.15V27.534C90.1423 27.3473 90.2403 27.24 90.4363 27.212C90.7256 27.1653 90.9823 27.0393 91.2063 26.834C91.4396 26.6287 91.6356 26.3253 91.7943 25.924C91.953 25.5133 92.0743 24.9907 92.1583 24.356C92.2423 23.712 92.2843 22.942 92.2843 22.046V19.022C92.2843 18.9287 92.3123 18.854 92.3683 18.798C92.4336 18.7327 92.513 18.7 92.6063 18.7H98.1363C98.239 18.7 98.3183 18.7327 98.3743 18.798C98.4396 18.854 98.4723 18.9333 98.4723 19.036V28.178C98.4723 28.2713 98.4396 28.3507 98.3743 28.416C98.3183 28.472 98.239 28.5 98.1363 28.5H97.4223ZM104.423 28.64C103.63 28.64 102.949 28.5047 102.379 28.234C101.81 27.954 101.371 27.5293 101.063 26.96C100.755 26.3813 100.583 25.658 100.545 24.79C100.536 24.3793 100.531 23.9873 100.531 23.614C100.531 23.2313 100.536 22.8347 100.545 22.424C100.583 21.5653 100.76 20.8513 101.077 20.282C101.404 19.7033 101.852 19.274 102.421 18.994C103 18.7047 103.667 18.56 104.423 18.56C105.189 18.56 105.856 18.7047 106.425 18.994C107.004 19.274 107.457 19.7033 107.783 20.282C108.11 20.8513 108.287 21.5653 108.315 22.424C108.334 22.8347 108.343 23.2313 108.343 23.614C108.343 23.9873 108.334 24.3793 108.315 24.79C108.287 25.658 108.115 26.3813 107.797 26.96C107.489 27.5293 107.051 27.954 106.481 28.234C105.912 28.5047 105.226 28.64 104.423 28.64ZM104.423 27.45C105.142 27.45 105.725 27.2353 106.173 26.806C106.631 26.3767 106.878 25.6813 106.915 24.72C106.934 24.3 106.943 23.9267 106.943 23.6C106.943 23.264 106.934 22.8907 106.915 22.48C106.897 21.836 106.775 21.3133 106.551 20.912C106.337 20.5107 106.047 20.2167 105.683 20.03C105.319 19.8433 104.899 19.75 104.423 19.75C103.966 19.75 103.555 19.8433 103.191 20.03C102.827 20.2167 102.533 20.5107 102.309 20.912C102.095 21.3133 101.973 21.836 101.945 22.48C101.936 22.8907 101.931 23.264 101.931 23.6C101.931 23.9267 101.936 24.3 101.945 24.72C101.983 25.6813 102.23 26.3767 102.687 26.806C103.145 27.2353 103.723 27.45 104.423 27.45ZM110.706 28.5C110.603 28.5 110.524 28.472 110.468 28.416C110.412 28.3507 110.384 28.2713 110.384 28.178V19.036C110.384 18.9333 110.412 18.854 110.468 18.798C110.524 18.7327 110.603 18.7 110.706 18.7H116.096C116.199 18.7 116.278 18.7327 116.334 18.798C116.399 18.854 116.432 18.9333 116.432 19.036V19.596C116.432 19.6893 116.399 19.7687 116.334 19.834C116.278 19.89 116.199 19.918 116.096 19.918H111.756V28.178C111.756 28.2713 111.723 28.3507 111.658 28.416C111.602 28.472 111.523 28.5 111.42 28.5H110.706Z" fill="white"/>
</svg>
